<?xml version="1.0" encoding="utf-8"?>
<!-- Generator: Adobe Illustrator 27.0.0, SVG Export Plug-In . SVG Version: 6.00 Build 0)  -->
<svg version="1.1" id="svg24" xmlns="http://www.w3.org/2000/svg" xmlns:xlink="http://www.w3.org/1999/xlink" x="0px" y="0px"
	 viewBox="0 0 1112.9 474" style="enable-background:new 0 0 1112.9 474;" xml:space="preserve">
<style type="text/css">
	.st0{display:none;fill:#0C0601;}
	.st1{display:none;fill:#F2ECE9;}
	.st2{display:none;}
	.st3{display:inline;fill:#F2ECE9;}
	.st4{fill:#F2ECE9;}
</style>
<rect x="0.2" y="0.4" class="st0" width="1112.6" height="473.3"/>
<g id="Layer1000">
	<g id="Layer1001">
		<path id="path4" class="st1" d="M636.7,125.3c-13.3,23.5-24.1,48-32.8,73.8c-10.6,33.5-17.3,65.1-13.5,100.3
			c0.4,3.1,1.1,6.3,2,9.2c0.6,2.2,1.4,4.6,2.4,6.6c0.3,0.5,1.1,2,1.7,2.6c0.8-0.7,2-3,2.3-3.6c7-15.5,12.1-32.1,16.2-48.5
			c4.5-18.2,7.9-36.8,10.8-55.4c2.7-17.3,4.9-34.6,6.9-51.9C634.1,147.3,635.4,136.3,636.7,125.3L636.7,125.3L636.7,125.3z
			 M646.3,205.5c2-1,4.2-1.6,5.7-2c11.6-2.8,22.5-7.3,32.8-13.3c36-20.9,77.5-68.4,91.3-107.9c3.7-10.5,5.4-22.1,3.2-33.1
			c-1.7-8.5-5.8-16.4-12.7-21.7c-5.9-4.5-12.9-6.4-20.2-6.3c-9.6,0.2-19.1,3.8-27.4,8.6c-4.6,2.6-9,6-13.1,9.3
			c-5.2,4.1-10.2,8.5-15,13.1c-4.7,4.5-9.3,9.2-13.7,14c-3.3,3.8-6.7,7.8-9.5,12.1c-1.8,9.5-3.8,18.9-5.7,28.4
			C655.3,139.3,652.4,172.8,646.3,205.5L646.3,205.5z M784.7,101.2L784.7,101.2c-19.9,39.7-57.5,76.5-93.9,98.5
			c-2.6,1.6-5.4,2.9-8.2,4.2c-3.6,1.6-7.2,3.2-10.9,4.6c-3.5,1.3-7,2.6-10.5,3.6c-2.9,0.9-6,1.7-9,2c-1.8,0.2-3.9,0.4-5.7,0.2
			c-0.7-0.1-1.3-0.2-1.9-0.4c-1.1,5.5-2.4,10.9-3.8,16.3c-3.6,15.7-7.2,31.4-11.5,46.9c-4,14.3-8.5,28.9-14.3,42.5
			c-0.9,2.1-2,4.1-3.2,6c-2.3,3.7-5.4,7.3-8.9,9.9c-3.3,2.5-7.4,4.2-11.6,3.9c-8.3-0.7-12.6-9-14.8-16.1
			c-11.9-39-0.9-89.3,11.4-127.2l0,0l0,0c13.1-37.5,30.8-74.7,53.6-107.3c0.8-5.3,1.3-10.6,2.3-15.8c1.7-8.9,5.2-21.9,16.1-22.8
			c1.2-0.1,2.3-0.2,3.5-0.3c2.4-0.1,5.3,0.1,6.9,2.1c12.5-13.8,26.3-26.5,42.6-35.7c11.2-6.4,24-10.8,37-10.6
			c10.7,0.2,21,3.5,29.3,10.3c8.9,7.2,14.4,17.6,16.5,28.8c2.6,13.5,0.4,27.6-4.3,40.4c-0.9,2.4-2.8,7.1-2.8,7.1
			C787.2,95.9,784.1,102.4,784.7,101.2"/>
	</g>
	<g id="Layer1002" class="st2">
		<path id="path11" class="st3" d="M405.1,162.5c-2.1,3.1-4.1,6.2-6,9.3c-13.4,21.6-26.2,43.6-37.5,66.4
			c-6.2,12.6-12,25.5-16.8,38.7c-3.2,8.6-6,17.5-8.1,26.5C360.9,257.1,383.5,210,405.1,162.5L405.1,162.5L405.1,162.5z"/>
		<path id="path13" class="st3" d="M437,153.8c-4.2,9.8-8.5,19.5-12.9,29.2c-7.5,16.5-15.2,32.8-23.3,49
			c-9,18.1-18.2,36.1-28.1,53.7c-4.3,7.7-8.8,15.4-13.4,22.9c-3.9,6.3-7.9,12.5-12.3,18.4c-3,4.1-6.9,8.2-11.5,10.5
			c-3.7,1.8-7.8,2.4-11.6,0.8c-3.7-1.5-6.2-4.7-7.6-8.3c-1.7-4.3-2-9.2-1.5-13.8c1.4-13.4,5.5-27.1,10-39.7
			c5.3-14.9,11.8-29.4,18.8-43.6c12.3-25.1,26.4-49.7,41.3-73.3c6.1-9.7,12.8-19,20.2-27.7l0,0l0,0c4.4-4.9,9.6-9.6,15.4-12.7
			c4.9-2.5,10.4-4,15.9-2.5c9.3,2.6,13.5,12.5,15.4,21.1v0.1v0.1c2.5,13.7,1.1,27.3-0.5,41v0.1v0.1c-1.4,9.3-3.2,18.6-5.1,27.9
			c-2,10.1-4,20.2-5.9,30.3c-2.1,11.5-3.9,23.2-4.8,34.9c-0.8,10.2-1,21,0.6,31.1c0.7,3.8,2.2,9.7,6.2,11.3
			c6.1,2.5,18.1-4.5,23.2-7.4c14.5-8.7,27.2-19.8,38.1-32.8c46.1-55.4,55.4-142.4,40.7-210.9c-0.8-3.6-1.6-7.3-2.2-11
			c-0.1-0.9-0.3-1.9-0.3-2.8c-0.1-1.9,0.6-3.7,2.6-4.2c1.6-0.4,3,0.4,3.8,1.7c0.2,0.4,0.4,0.8,0.6,1.2c0.4,0.9,0.8,1.9,1.1,2.9
			c1,2.7,1.8,5.5,2.6,8.2c0.2,0.5,0.3,1.1,0.5,1.6c11.1,38,12.5,80.6,6,119.5c-9.2,55.6-36,111.7-85.4,142l0,0l0,0
			c-10.3,5.9-25.5,13-37.4,7.9c-9.9-4.3-14-15.4-15.8-25.2l0,0l0,0c-1.9-11.4-1.8-23.3-0.9-34.8c1-12.4,2.9-24.7,5.1-36.9
			c1.8-10.2,3.9-20.3,5.8-30.4c1.8-9.4,3.5-18.8,4.7-28.3C436.1,168.2,437,161,437,153.8L437,153.8L437,153.8z"/>
	</g>
	<path id="path21" class="st4" d="M1104.2,405.5h-5.7c-5.5,0-9.2,0.4-11.2,1c-1.9,0.7-3.4,1.9-4.5,3.6s-1.7,4-1.7,6.9s0.7,5,2.2,6.8
		c1.4,1.8,3.1,2.9,4.8,3.3c1.8,0.4,5.2,0.6,10.3,0.6h5.7L1104.2,405.5L1104.2,405.5z M376.9,397.4h8.6v29.5l32-29.5H428l-31.5,29.7
		l33.9,37.2h-11.1L390.4,432l-4.9,4.1v28.2h-8.6v-28.2l-4.8-4.1l-28.9,32.4h-11l33.6-37.1l-31.1-29.8h10.5l31.6,29.4L376.9,397.4
		L376.9,397.4z M294.8,410.9L275.2,457h38.4L294.8,410.9L294.8,410.9z M266.8,457l25.8-59.6h4.5l25.7,59.6h8v15.9h-8.3v-8.6h-55.3v9
		h-8.6V457H266.8z M197.1,397.4V447l49.2-49.6h0.7v66.9h-8.6v-49.2l-48.9,49.2h-1.1v-66.9H197.1L197.1,397.4z M150.7,397.4h2.5
		l22.6,66.9h-9l-16.6-49.2l-25.8,49.2h-1.6L97,415l-16.6,49.4h-9l22.8-66.9h2.3l27,52.4L150.7,397.4L150.7,397.4z M8.7,397.4V447
		l49.2-49.6h0.7v66.9H50v-49.2L1.2,464.3h-1v-66.9H8.7L8.7,397.4z M1104.2,435.1h-6.1l-19.2,29.9h-9.3l20.2-30.7
		c-5-0.6-9.1-2.5-12.2-5.7s-4.7-7.1-4.7-11.9c0-5.9,1.8-10.5,5.4-13.7c3.6-3.3,8.3-4.9,14.1-4.9h20.4V465h-8.6L1104.2,435.1
		L1104.2,435.1z M1006.8,398v49.6L1056,398h0.7v67h-8.6v-49.2L999.2,465h-1v-67H1006.8L1006.8,398z M960.3,398h2.5l22.6,66.9h-9
		l-16.6-49.2L934,465h-1.6l-25.8-49.4L890.1,465h-9l22.9-67h2.3l27,52.4L960.3,398L960.3,398z M862.1,424.7c-1.2-4.6-2.8-8.3-5-11
		c-2.2-2.8-5.2-5-8.8-6.6c-3.6-1.7-7.5-2.5-11.5-2.5c-6.6,0-12.3,2.1-17,6.3c-3.5,3.1-6.1,7.7-7.9,13.8L862.1,424.7L862.1,424.7z
		 M862,442.8l7.3,3.8c-2.4,4.6-5.2,8.4-8.3,11.3c-3.1,2.8-6.6,5-10.5,6.5s-8.3,2.2-13.3,2.2c-11,0-19.5-3.6-25.7-10.7
		s-9.3-15.2-9.3-24.2c0-8.5,2.6-16,7.9-22.6c6.6-8.4,15.5-12.6,26.6-12.6s20.6,4.3,27.4,13c4.8,6.1,7.3,13.7,7.4,22.8H811
		c0.2,7.8,2.7,14.1,7.5,19c4.8,5,10.8,7.4,17.9,7.4c3.4,0,6.8-0.6,10-1.8s6-2.7,8.3-4.7C856.9,450.2,859.4,447.1,862,442.8
		L862,442.8L862,442.8z M757.8,411.5l-19.6,46.2h38.4L757.8,411.5L757.8,411.5z M729.8,457.7l25.8-59.6h4.5l25.7,59.6h8v15.9h-8.3
		V465h-55.3v9h-8.6v-16.3H729.8L729.8,457.7z M675.3,404.7c-4.8,0-9.2,1.2-13.3,3.5c-4,2.3-7.3,5.6-9.7,9.9
		c-2.4,4.2-3.6,8.7-3.6,13.5s1.2,9.2,3.6,13.5c2.4,4.3,5.7,7.6,9.7,10c4.1,2.4,8.5,3.6,13.1,3.6s9.2-1.2,13.4-3.5
		c4.2-2.4,7.5-5.6,9.7-9.6c2.3-4,3.4-8.6,3.4-13.6c0-7.7-2.5-14.2-7.7-19.4C689,407.3,682.7,404.7,675.3,404.7L675.3,404.7
		L675.3,404.7z M709.8,398v67h-8.6v-11.5c-3.6,4.4-7.7,7.7-12.1,9.9c-4.5,2.2-9.4,3.3-14.7,3.3c-9.5,0-17.5-3.4-24.2-10.3
		s-10-15.2-10-25s3.4-17.8,10.2-24.7c6.7-6.8,14.9-10.2,24.4-10.2c5.5,0,10.4,1.2,14.9,3.5c4.4,2.3,8.3,5.8,11.7,10.5V398H709.8
		L709.8,398z M579.8,398h8.6v28.2l31.2-28.2h11.8l-33.8,30.5l36.5,36.4h-12.2l-30.8-31l-2.7,2.4V465h-8.6V398L579.8,398z
		 M525.9,404.7c-14.9,0-26.5,12.1-26.5,26.9s11.7,27.1,26.5,27.1c14.7,0,26.5-11.8,26.5-26.8S541.3,404.7,525.9,404.7L525.9,404.7
		L525.9,404.7z M560.4,398v67h-8.6v-11.5c-7,8.5-15.8,13.1-26.8,13.1c-19.6,0-34.3-16-34.3-35.3s15.2-34.9,34.5-34.9
		c11.3,0,20.1,4.9,26.6,14V398H560.4L560.4,398z M475.8,440H439v-12h36.9v12H475.8z"/>
</g>
<path class="st4" d="M454.1,133.3c-0.6,1.1-1.3,2.1-1.8,3.2c-3,5.6-6.2,11.1-8.9,16.8c-4.2,8.6-8.1,17.4-12.1,26.1
	c-2.6,5.7-5,11.5-7.8,17.1c-3.6,7.6-7.5,15.1-11.3,22.5c-2,3.9-4.1,7.7-6.2,11.5c-4.3,7.8-8.7,15.6-13,23.4c-2.4,4.3-4.7,8.7-7.2,13
	c-3.9,6.7-7.8,13.4-11.9,19.9c-7.2,11.1-14.5,22.2-22,33.1c-4.2,6.1-8.8,11.8-13.3,17.6c-3.4,4.5-7.8,7.8-12.9,10.2
	c-8.5,4-18.6-0.4-20.5-10c-1-5.1-1.2-10.3-0.9-15.5c0.7-12.1,4.2-23.5,8.4-34.8c3.3-8.8,6.6-17.6,10.3-26.2
	c3.2-7.5,6.8-14.8,10.5-22c5.2-10.1,10.7-20.2,16-30.2c6.6-12.4,13.9-24.4,21.6-36.2c5-7.6,9.7-15.4,14.8-22.9
	c5.4-8,11.1-15.8,16.9-23.5c5-6.7,10.1-13.3,16.3-19c4.2-3.9,8.7-7.6,13.9-10.1c3.2-1.6,6.5-3.1,9.9-3.9c6.1-1.4,12-0.6,17.1,3.6
	c5.8,4.8,9.4,11,10.9,18.3c0.7,3.4,1,6.8,1.4,10.2c0.3,3.5,0.8,7,0.6,10.5c-0.2,6.3-0.6,12.6-1.3,18.9c-0.9,7.6-2.2,15.2-3.6,22.8
	c-1.8,9.8-3.7,19.6-5.7,29.3c-2.4,11.9-4.9,23.7-7.3,35.6c-1.2,6-2.3,12-3,18c-0.8,6.4-1.2,12.9-1.7,19.3c-0.3,3.7-0.5,7.5-0.3,11.3
	c0.4,6.7,0.9,13.5,2,20.1c0.9,5.3,3.7,9.7,8.7,12.2c3.7,1.9,7.6,1.4,11.4,0.3c5.8-1.7,11.6-3.5,16.8-6.6c6.5-3.9,12.8-8,19.1-12.3
	c4.1-2.7,8.1-5.6,11.8-8.8c4.9-4.3,9.4-9,14-13.6c1-0.9,1.9-1.9,2.8-2.8c7.3-7.4,14.3-15.1,19.9-23.9c3.1-4.9,5.9-10,8.8-15.1
	c1.9-3.4,4-6.8,5.5-10.4c3.2-7.3,6.2-14.7,9.1-22.2c3-7.8,5.9-15.6,8.6-23.4c2.5-7.3,4.3-14.8,5.4-22.5c0.8-5.6,1.6-11.2,2.3-16.9
	c0.5-4.3,0.9-8.7,1.3-13.1c0.5-5.2,0.7-10.4,1.4-15.6c1.3-9.4,1-18.9,0.9-28.3c0-3.9-0.8-7.7-1.2-11.6c-0.3-3-0.6-6-1-9
	c-0.5-3.5-1.1-7-1.6-10.5c-0.5-3.3-0.9-6.6-1.4-9.9c-0.6-4.3-1.3-8.5-1.9-12.8c-0.6-3.9-1.3-7.9-1.7-11.8c-0.2-2-0.1-4,0-6
	c0-0.5,0.6-1.1,1.1-1.2c0.4-0.1,1.1,0.4,1.3,0.8c1.8,3.9,3.8,7.7,5.4,11.7c3,7.5,4.7,15.5,6.2,23.5c1.1,6.2,1.9,12.4,2.7,18.6
	c0.7,5.5,1.2,11,1.7,16.5c0.3,3.8,0.6,7.7,0.7,11.5c0.2,7.5,0.4,15,0.3,22.4c-0.1,5.9-0.5,11.9-1,17.8c-0.4,5-0.9,10-1.7,15
	c-0.8,5.8-1.8,11.6-3,17.4c-1.8,8.7-3.5,17.5-6.1,26c-3.2,10.5-7.1,20.9-11.1,31.2c-3.9,10-9.1,19.4-15,28.4
	c-3.1,4.8-5.8,9.7-9.1,14.3c-4.4,6.2-8.9,12.3-13.8,18.1c-4.2,5-8.8,9.7-13.5,14.2c-8.3,7.8-17,15.1-26.6,21.3
	c-8.5,5.5-17.2,10.3-27,13c-5,1.4-10.1,2.5-15.3,3.3c-11.9,1.9-22.6-5.8-26.6-16.3c-2.4-6.1-3.9-12.5-4.6-19c-0.4-4-0.8-8-1-12
	c-0.2-4.5-0.5-9-0.3-13.4c0.2-5.6,0.8-11.2,1.3-16.7c0.5-4.8,1-9.6,1.7-14.3c0.6-4.2,1.3-8.4,2-12.6c0.9-5.2,1.9-10.5,3-15.7
	c1.5-7.8,3.1-15.6,4.6-23.4c1.4-7,2.7-14,4.1-21c0.7-3.8,1.6-7.6,2.2-11.4c0.5-3.2,0.9-6.4,1.1-9.6c0.3-4.8,0.6-9.7,0.6-14.5
	c0-2.5-0.4-5.1-0.6-7.6C454.5,133.4,454.3,133.3,454.1,133.3z M327.8,309.2c0.2,0.1,0.3,0.1,0.5,0.2c0.1-0.1,0.3-0.2,0.3-0.3
	c3.7-5.8,7.3-11.6,11.1-17.3c6.7-10,12.6-20.4,18.2-31c3.3-6.2,6.6-12.5,9.8-18.7c4.4-8.5,8.9-17,13.3-25.6c3-5.8,5.8-11.7,8.6-17.7
	c4.4-9.4,8.7-18.9,13.1-28.3c2.7-5.9,5.6-11.7,8.3-17.6c1.3-2.7,2.3-5.6,3.5-8.3c-0.2-0.1-0.4-0.3-0.5-0.4c-0.4,0.3-0.8,0.7-1.1,1.1
	c-5.9,8.5-11.8,17-17.6,25.6c-5.7,8.6-11.2,17.2-16.7,25.9c-3.8,6-7.3,12.1-10.9,18.2c-3.8,6.5-7.7,12.9-11.2,19.6
	c-3.2,6.1-6.2,12.3-9,18.6c-3.5,8.1-6.9,16.2-9.9,24.5c-2.8,7.7-5.2,15.5-7.7,23.3C329.1,303.7,328.5,306.5,327.8,309.2z"/>
<path class="st4" d="M660.8,96.4c-3.7,1.6-7.2,3.1-10.7,4.7c-3.9,1.8-7.9,3.5-11.8,5.5c-3,1.5-6.2,1.7-9.3,2
	c-4.5,0.4-6.7-3.1-4.8-7.2c1.7-3.7,4.5-6.7,7.7-8.9c8.4-5.8,17.1-11.3,25.7-16.8c6-3.9,10.2-9.2,13.1-15.8c1.7-3.7,4-7.2,6.5-10.5
	c2-2.6,5.3-3.7,8.6-3.6c2.8,0.1,5.6,0.3,8.4,0.9c5.4,1.2,10.2-0.7,14.7-3.1c6.7-3.6,13-7.7,19.6-11.6c16.5-9.7,34-16.8,52.9-20.1
	c13.8-2.4,27.5-2.7,41.1,1.5c15.8,4.8,27.5,14.4,33.2,30.2c2,5.4,3.2,11.2,4.2,16.9c1.5,8.7,0.2,17.3-2,25.8
	c-2,7.5-4.8,14.7-8.5,21.5c-3.6,6.7-7.8,13-12.6,18.9c-4.6,5.6-9.2,11.4-14.1,16.7c-4.8,5.2-10.1,10-15.4,14.8
	c-5.4,4.9-10.9,9.7-16.6,14.3c-10.7,8.7-21.8,17.1-33.5,24.4c-7.3,4.5-14.9,8.7-22.4,12.8c-10.4,5.7-21,10.9-32,15.3
	c-9.6,3.8-19.4,6.8-29.5,9.1c-5.5,1.2-11.2,2-16.8,2.7c-5.1,0.6-10.2,0.7-15.3,1c-2.6,0.2-5.3,0.2-7.9,0.4c-0.6,0.1-1.2,0.8-1.5,1.4
	c-5.1,10.6-10,21.3-15.3,31.8c-8.7,17-17.7,33.7-26.6,50.6c-3.4,6.5-6.9,12.9-10.5,19.2c-1.7,3-3.5,5.9-6.4,8
	c-3.1,2.2-6.6,3.3-10.4,2.4c-2.4-0.6-4.1-2.3-4.9-4.8c-0.9-3.1-0.3-6,1.1-8.9c9.5-18.8,19-37.6,28.3-56.4c5.4-11,10.8-22,15.8-33.2
	c2.9-6.4,5-13.1,7.5-19.7c3.1-8.3,6.2-16.6,9.4-24.8c4.5-11.5,9.1-23,13.6-34.6c5.7-14.6,11.5-29.2,17.1-43.9
	c3.5-9.2,6.9-18.4,10.3-27.6C660.7,97.2,660.7,96.9,660.8,96.4z M640.8,225.4c5.9-0.5,11.2-0.8,16.5-1.3c5.1-0.5,10.2-1,15.3-1.7
	c7.8-1,15.5-2.9,23-5.3c11.9-3.8,23.1-9.1,33.9-15.2c10.1-5.7,19.9-11.9,29.2-18.9c21.9-16.4,41.5-35.1,57.8-57.1
	c10.3-13.9,19-28.6,24.3-45.1c3-9.2,4.6-18.7,3.2-28.4c-1.3-9.2-5.5-16.8-13.4-22.1c-7-4.6-14.8-6.4-23-6.9c-8.1-0.5-16.1,0-24,1.8
	c-6.4,1.4-12.9,2.9-19,5.3c-6.3,2.4-12.4,5.7-18.3,9c-7.6,4.3-15.1,8.8-22.3,13.6c-6.2,4.1-12.1,8.6-18,13.1c-2.4,1.9-4.9,3.8-6.2,7
	c-10.3,25.7-20.8,51.4-31,77.2c-7.4,18.6-15.5,37-21.7,56.1C645.2,212.5,643.1,218.7,640.8,225.4z"/>
<path class="st4" d="M586.3,139.7c3.6,0.3,5.7,1.8,6.2,4.7c0.2,1-0.2,2.5-0.9,3.2c-5.9,5.9-12,11.6-18,17.4c-1,1-2.2,1.9-3.2,2.9
	c-5.6,5.4-11.2,10.8-16.9,16.2c-4.4,4.2-8.7,8.3-13.1,12.4c-4.1,3.9-8.2,7.7-12.3,11.6c-0.3,0.3-0.7,0.7-1.1,0.7
	c-0.7,0.1-1.5,0.2-2-0.2c-0.3-0.3-0.4-1.3-0.1-1.8c1.5-3.4,2.8-6.9,4.7-10c3.1-5.1,6.4-10.1,9.8-15c2.2-3.1,4.8-6,7.3-8.9
	c3.3-3.8,6.5-7.6,9.9-11.2c2-2.1,4.2-4.1,6.4-6c3.1-2.7,6.3-5.4,9.6-7.9c2.9-2.2,5.9-4.3,9-6.3C583,140.5,584.7,140.2,586.3,139.7z"
	/>
</svg>
